<?xml version="1.0" encoding="UTF-8" standalone="no"?>
<!-- Created with Inkscape (http://www.inkscape.org/) -->

<svg
   version="1.1"
   id="svg1791"
   width="371.24445"
   height="741.55072"
   viewBox="0 0 371.24445 741.55072"
   sodipodi:docname="daa.svg"
   inkscape:version="1.2.2 (732a01da63, 2022-12-09, custom)"
   xmlns:inkscape="http://www.inkscape.org/namespaces/inkscape"
   xmlns:sodipodi="http://sodipodi.sourceforge.net/DTD/sodipodi-0.dtd"
   xmlns="http://www.w3.org/2000/svg"
   xmlns:svg="http://www.w3.org/2000/svg">
  <defs
     id="defs1795" />
  <sodipodi:namedview
     id="namedview1793"
     pagecolor="#ffffff"
     bordercolor="#000000"
     borderopacity="0.25"
     inkscape:showpageshadow="2"
     inkscape:pageopacity="0.0"
     inkscape:pagecheckerboard="0"
     inkscape:deskcolor="#d1d1d1"
     showgrid="false"
     inkscape:zoom="0.98603159"
     inkscape:cx="183.5641"
     inkscape:cy="376.2557"
     inkscape:window-width="1920"
     inkscape:window-height="1031"
     inkscape:window-x="0"
     inkscape:window-y="25"
     inkscape:window-maximized="1"
     inkscape:current-layer="layer1" />
  <g
     inkscape:groupmode="layer"
     id="layer1"
     inkscape:label="Layer 1"
     transform="translate(126.00354,255.76815)">
    <path
       style="fill:#000000;stroke-width:1.01651"
       d="m -20.915276,483.41305 c -3.004126,-3.00412 -3.199209,-6.84919 -0.810436,-15.97418 2.510953,-9.59181 2.576509,-56.46343 0.09219,-65.90144 -2.20281,-8.3685 -3.480509,-18.62187 -4.876813,-39.13583 -1.222867,-17.966 -0.07828,-34.15245 2.626309,-37.141 0.819616,-0.90565 1.490201,-2.46085 1.490201,-3.45599 0,-0.99514 2.401515,-4.16114 5.336702,-7.03555 8.5114818,-8.33526 15.2164725,-10.81207 29.2248,-10.79552 4.752205,0.006 11.270606,0.62917 14.485334,1.38567 3.214728,0.75649 5.844961,1.28475 5.844961,1.17391 0,-0.78589 -5.401468,-15.67102 -6.236725,-17.18691 -0.575602,-1.04462 -1.307483,-10.53633 -1.626405,-21.09267 -0.390096,-12.91247 -0.944789,-19.18834 -1.695057,-19.17811 -0.613378,0.01 -4.545955,3.24506 -8.73908,7.1926 -8.7633732,8.2502 -24.701136,21.47035 -30.861968,25.59963 -2.31429,1.55114 -7.638528,4.44044 -11.831651,6.42072 -6.062923,2.8633 -8.610312,3.53464 -12.441852,3.27882 -3.064207,-0.20457 -4.987382,0.12039 -5.283344,0.8931 -0.321177,0.83838 -2.672041,1.08765 -7.587749,0.80455 -8.353079,-0.4811 -14.128874,-3.50246 -16.881273,-8.83075 -4.467992,-8.64949 -5.771821,-21.10431 -3.011405,-28.76654 0.805664,-2.23633 1.471736,-5.77651 1.480153,-7.8671 0.0086,-2.09055 0.934943,-6.20744 2.058947,-9.14863 1.124002,-2.94116 2.287543,-7.86347 2.585646,-10.93843 1.435295,-14.80528 7.01702,-34.84565 11.254155,-40.40646 1.976461,-2.59389 3.26509,-3.30367 5.997948,-3.30367 3.142435,0 3.684584,0.44761 5.579138,4.60643 2.320577,5.09398 2.138014,8.18117 -1.050081,17.75689 -1.023764,3.07496 -2.385434,8.33542 -3.025939,11.68992 -0.640506,3.3545 -2.24531,9.75854 -3.566239,14.23121 -4.976742,16.8513 -6.156484,34.29079 -2.647449,39.13582 1.491895,2.0599 2.853367,2.60024 7.187349,2.85246 3.008906,0.17504 7.376696,-0.38049 9.98918,-1.27064 2.553304,-0.87001 5.678527,-1.58182 6.944933,-1.58182 1.266413,0 2.900298,-0.80051 3.630858,-1.7789 0.73055,-0.9784 3.975224,-3.56149 7.210384,-5.7402 3.23515,-2.17871 6.817103,-5.27438 7.959889,-6.8793 1.722474,-2.41898 7.0793222,-7.14648 21.2277654,-18.73369 0.8386243,-0.68682 4.6149856,-4.10895 8.3919196,-7.60474 8.14282,-7.53673 8.706245,-9.10823 9.083817,-25.33663 0.341571,-14.68146 -0.896626,-17.76245 -7.542691,-18.76829 -5.586406,-0.84546 -16.0321223,-4.59316 -16.0321223,-5.75202 0,-0.49091 -0.8253069,-0.89256 -1.8340145,-0.89256 -1.00870914,0 -4.0704622,-1.48665 -6.8038891,-3.30367 -2.7334299,-1.81702 -6.4588831,-4.21854 -8.2788001,-5.33671 -4.238654,-2.60424 -15.521673,-12.89792 -15.598992,-14.2312 -0.03243,-0.55908 -1.53521,-1.74393 -3.339532,-2.633 -2.426398,-1.19558 -3.760828,-2.916 -5.124983,-6.60734 -1.014416,-2.74497 -3.106362,-6.36316 -4.648766,-8.04041 -1.54241,-1.67725 -3.964206,-6.02285 -5.381773,-9.65689 C -60.088327,99.117458 -60.004894,99.478957 -60.004894,78.076683 V 59.853084 l -8.076842,-9.843331 C -72.524,44.595929 -76.964566,39.270967 -77.94966,38.176494 -79.843006,36.072947 -90.520302,22.025609 -101.89321,6.6757381 c -11.94546,-16.1226252 -16.94781,-25.4370201 -21.32027,-39.6983661 -2.90834,-9.485969 -3.07948,-10.912233 -2.56154,-21.346816 0.75688,-15.248514 2.3153,-20.421055 7.89065,-26.189831 2.48185,-2.567956 6.35168,-6.645674 8.59962,-9.061616 3.16852,-3.405317 6.59563,-5.459978 15.247725,-9.141433 6.138293,-2.611856 12.436504,-5.067466 13.996002,-5.456956 l 2.835454,-0.70813 -5.578884,-5.84888 c -3.068384,-3.21688 -5.891026,-7.1653 -6.272536,-8.77425 -0.38151,-1.60896 -1.5024,-3.84025 -2.49087,-4.95842 -3.783267,-4.27964 -5.31537,-11.53113 -5.154454,-24.39634 0.220292,-17.61397 1.862564,-25.76461 6.144478,-30.49545 1.012064,-1.11817 2.379057,-3.71717 3.037776,-5.77559 1.604474,-5.01381 21.724474,-25.77898 25.997087,-26.83071 1.673567,-0.41195 5.14297,-2.6214 7.70978,-4.9099 2.566812,-2.2885 7.141128,-5.47147 10.165148,-7.07326 15.007823,-7.9495 24.934243,-12.84169 26.058073,-12.84261 0.685343,-5.6e-4 2.743786,-0.91416 4.574316,-2.03024 1.830527,-1.11608 4.3304633,-2.03095 5.555405,-2.03303 1.2249386,-0.002 2.5098764,-0.46124 2.8554089,-1.02032 0.3455325,-0.55908 1.5030696,-1.01651 2.5722908,-1.01651 1.0692302,0 4.5451527,-1.15032 7.7242611,-2.55628 8.0324392,-3.55233 17.6632542,-5.77005 37.4297402,-8.61904 9.361564,-1.34932 39.185718,-2.25735 39.185718,-1.19308 0,0.46017 3.646919,0.92641 8.104256,1.03608 16.918595,0.41628 41.436405,5.01161 52.246965,9.79255 3.17911,1.40596 6.65503,2.55628 7.72426,2.55628 1.06922,0 2.22676,0.45744 2.57229,1.01652 0.34554,0.55908 1.63047,1.01822 2.85541,1.02031 1.22495,0.002 3.72488,0.91695 5.55541,2.03303 1.83053,1.11608 3.88897,2.02968 4.57431,2.03024 1.12383,9.2e-4 11.05025,4.89311 26.05806,12.84262 3.02404,1.60178 7.59835,4.78475 10.16515,7.07325 2.56683,2.2885 6.03622,4.49796 7.70979,4.90991 1.99611,0.49136 6.79816,4.60488 13.95925,11.95772 10.88688,11.17837 12.96483,14.56996 12.9794,21.18477 0.006,3.01471 2.7735,7.38177 4.14129,6.53643 0.52084,-0.32189 0.94697,0.3713 0.94697,1.54041 0,1.16912 0.72119,3.82634 1.60266,5.90496 2.34279,5.52458 2.30978,26.41638 -0.0528,33.25819 -0.96518,2.79542 -2.56366,5.99744 -3.55211,7.1156 -0.98847,1.11818 -2.10187,3.31961 -2.47423,4.89208 -0.70246,2.96642 -11.63507,15.56948 -15.29287,17.62951 -1.89287,1.066044 -6.66026,6.6962 -6.66026,7.86559 0,0.265277 -2.85895,3.256047 -6.35322,6.646188 -6.05916,5.878552 -6.22317,6.163983 -3.54357,6.166185 3.3484,0.003 9.20117,3.614552 10.4972,6.477865 0.50838,1.123199 2.14821,2.755921 3.64405,3.628294 4.06571,2.371078 7.44523,7.047369 9.41085,13.02188 0.9657,2.935195 2.32192,5.3367 3.01384,5.3367 2.24816,0 4.03801,16.581097 3.97625,36.836094 -0.0321,10.4758822 -0.52029,20.3106625 -1.08521,21.8550661 -0.56493,1.5443915 -1.58977,4.8664309 -2.27744,7.3823049 -1.40029,5.123174 -2.40704,7.80365 -5.15417,13.72295 -1.0379,2.236332 -2.8405,6.353217 -4.00577,9.148633 -2.14257,5.139802 -6.96211,12.926162 -8.39251,13.558711 -0.42785,0.189198 -1.74183,2.47637 -2.9199,5.082581 -1.17808,2.606184 -4.03004,6.831582 -6.33769,9.389705 -2.30761,2.558154 -5.79667,6.610236 -7.75346,9.004637 -5.14236,6.292416 -5.9536,7.055311 -9.3947,8.834751 -1.70663,0.882558 -4.1321,2.587253 -5.38988,3.788265 -11.88901,11.352055 -15.13554,13.193059 -29.43382,16.69085 -7.77801,1.90273 -13.72111,2.57982 -25.30748,2.88319 -9.56785,0.25063 -15.67357,0.83742 -16.58538,1.59415 -2.46966,2.04964 -4.32589,6.59403 -5.83237,14.27866 -1.63455,8.33835 -4.4758,15.94251 -10.296437,27.55711 -3.001116,5.98845 -5.988348,9.91941 -12.116508,15.94429 -10.208503,10.0365 -11.782973,11.24332 -19.859252,15.22206 -9.226895,4.54556 -18.132205,7.37627 -20.967122,6.66478 -3.231704,-0.81112 -4.41459,2.4086 -4.394242,11.96066 0.02382,11.14179 0.402052,11.2328 10.795327,2.59678 4.95867,-4.12025 11.416232,-9.02573 14.350158,-10.90104 2.933915,-1.87531 5.334396,-3.78391 5.334396,-4.24134 0,-0.45744 1.715368,-1.38424 3.81193,-2.05956 2.096562,-0.67528 4.274911,-1.59135 4.840786,-2.03566 2.133156,-1.6749 12.379024,-4.85513 17.268409,-5.35996 10.766505,-1.11162 29.389355,8.25804 32.686675,16.44559 0.82179,2.04056 3.06675,6.94683 4.9888,10.90282 5.2685,10.8437 11.47083,32.85566 13.6318,48.37911 0.4412,3.1694 1.53768,8.20115 2.4366,11.18166 0.89893,2.98049 2.29376,12.02804 3.09963,20.10565 1.23331,12.36215 1.24866,15.20484 0.097,17.9613 -1.50775,3.60856 -4.19291,5.47143 -7.88661,5.47143 -4.83269,0 -5.93215,-1.93335 -6.37437,-11.20889 -0.22586,-4.73725 -0.63878,-9.67827 -0.91762,-10.9801 -0.58423,-2.72753 -2.40412,-14.94922 -3.65878,-24.57069 -0.95746,-7.34254 -2.20945,-12.25688 -5.0499,-19.82204 -1.04958,-2.79541 -2.66985,-8.28459 -3.60061,-12.19818 -0.93075,-3.91358 -2.50708,-9.17404 -3.50296,-11.68991 -0.99587,-2.51588 -3.05402,-7.81767 -4.57365,-11.78176 -3.44548,-8.9878 -5.87379,-10.62957 -17.241292,-11.65669 -6.513286,-0.58853 -8.544153,-0.43758 -9.869859,0.73354 -0.918037,0.81102 -5.034921,2.94532 -9.148633,4.7429 -13.648613,5.96415 -19.223717,10.58808 -39.213664,32.52336 -7.375087,8.09282 -8.000345,10.19821 -6.967852,23.46249 0.39577,5.08423 0.908052,11.75996 1.138404,14.83492 1.193462,15.9307 7.510379,32.75064 13.406022,35.69603 3.056549,1.52699 3.844551,1.50964 11.181662,-0.24619 13.304288,-3.18385 27.849676,-2.41015 36.86405,1.96086 4.651292,2.25539 14.231212,11.67086 14.231212,13.98692 0,0.99514 0.67058,2.55034 1.49019,3.45599 2.70461,2.98855 3.84918,19.175 2.62631,37.14101 -1.3963,20.51397 -2.674,30.76733 -4.87681,39.13582 -2.48434,9.43801 -2.41878,56.30963 0.0922,65.90144 2.38877,9.12501 2.19369,12.97006 -0.81044,15.97418 -3.00978,3.00981 -5.10344,3.12277 -9.393732,0.5068 -4.064087,-2.47805 -6.135725,-5.61313 -8.979546,-13.58909 -1.231063,-3.45272 -2.853794,-7.75458 -3.606067,-9.55965 -1.234516,-2.96223 -1.163076,-3.55647 0.733232,-6.0991 1.155564,-1.54942 3.392262,-3.04582 4.970452,-3.32536 2.117981,-0.37516 3.0973,-1.3069 3.739516,-3.5578 1.028418,-3.60454 2.504915,-18.03377 3.796605,-37.10279 0.51127,-7.54762 1.43087,-17.13834 2.04358,-21.31269 1.81085,-12.3375 1.46762,-47.06356 -0.54299,-54.93513 -3.305274,-12.9403 -8.615163,-16.65737 -23.81095,-16.66849 -10.24609,-0.006 -15.885561,1.40291 -24.270255,6.06973 -6.346313,3.53234 -16.957388,3.55933 -20.740967,0.0528 -6.673844,-6.18512 -28.2118,-8.45022 -36.9867423,-3.88983 -9.4011217,4.88586 -11.6105487,12.77902 -11.5906347,41.40748 0.0083,11.20552 0.515474,23.78902 1.128178,27.96341 0.612704,4.17434 1.532304,13.76506 2.04357,21.31269 1.291695,19.06901 2.7681946,33.49825 3.7966128,37.10279 0.642211,2.2509 1.6215352,3.18264 3.7395127,3.5578 1.5781904,0.27953 3.81488838,1.77594 4.97045231,3.32536 1.89630819,2.54263 1.96774959,3.13687 0.73323169,6.09909 -0.75227247,1.80508 -2.375004,6.10694 -3.6060643,9.55966 -2.8438233,7.97595 -4.9154584,11.11104 -8.9795452,13.58909 -4.290293,2.61595 -6.383957,2.503 -9.393736,-0.50681 z"
       id="path1909" />
    <path
       style="fill:#008000;stroke-width:1.01651"
       d="m 48.762184,173.18009 c 13.189287,-3.27032 21.521761,-9.16366 32.126001,-22.72181 8.381075,-10.71571 10.083127,-14.43378 12.134483,-26.50749 0.895115,-5.26831 2.320602,-12.00472 3.167764,-14.96977 0.847164,-2.96508 1.296199,-6.02714 0.997863,-6.80458 -0.298349,-0.77748 -2.485601,-1.99577 -4.860576,-2.707299 C 89.553588,98.637981 85.686503,96.002253 81.512602,92.097758 68.984505,80.378359 64.006378,70.103459 64.015578,55.983784 c 0.006,-10.134983 1.182591,-15.158516 4.468789,-19.089461 1.29983,-1.554841 3.335309,-4.742295 4.5233,-7.083236 1.187988,-2.340941 5.024315,-7.698636 8.525163,-11.90599 3.500845,-4.207355 7.244049,-9.8396591 8.318242,-12.5162352 1.07418,-2.6765746 3.715278,-7.4876376 5.869102,-10.6912341 2.153811,-3.203607 4.208371,-6.6343447 4.565666,-7.6238617 1.31873,-3.652134 12.34031,-19.593146 17.40871,-25.178966 1.01458,-1.118175 4.89317,-5.692489 8.61906,-10.165143 3.7259,-4.472669 9.4147,-10.292071 12.64179,-12.932001 7.63405,-6.245052 17.56702,-12.18642 19.27677,-11.530326 0.7416,0.284571 1.91173,-0.384662 2.60027,-1.487208 0.68856,-1.102547 1.64306,-2.004623 2.12113,-2.004623 0.47805,0 2.15622,-0.916438 3.72925,-2.036544 1.57303,-1.12009 3.54146,-1.775053 4.37429,-1.455469 0.83282,0.319584 1.79815,0.121588 2.14518,-0.43983 0.34702,-0.561508 4.0282,-1.776712 8.18039,-2.700497 7.3472,-1.634593 7.75088,-1.888254 15.06715,-9.467669 8.22443,-8.52026 13.70176,-13.37892 15.08247,-13.37892 0.48882,0 0.88876,-0.4314 0.88876,-0.95866 0,-0.52727 2.51587,-3.92426 5.59082,-7.54884 3.07496,-3.62457 5.59084,-7.0344 5.59084,-7.57738 0,-0.54298 1.32165,-3.66441 2.93703,-6.93652 6.05814,-12.2714 7.02252,-26.01374 2.66454,-37.96949 -1.52846,-4.19312 -3.41406,-8.34602 -4.19027,-9.22867 -0.77623,-0.88265 -1.4113,-2.11906 -1.4113,-2.74758 0,-2.34371 -2.41036,-6.32101 -3.83071,-6.32101 -1.85416,0 -12.43353,-10.10219 -12.43353,-11.87269 0,-0.7231 -1.48665,-2.03022 -3.30367,-2.90473 -6.79975,-3.27261 -14.34728,-7.71668 -17.24142,-10.15196 -1.64492,-1.38409 -3.60669,-2.51652 -4.35952,-2.51652 -0.75282,0 -2.71269,-1.13083 -4.35525,-2.51294 -1.64255,-1.38212 -3.25411,-2.24529 -3.58124,-1.91817 -0.32712,0.32713 -5.53671,-1.91094 -11.57686,-4.97347 -7.08094,-3.59025 -13.87084,-6.19133 -19.11421,-7.32229 -4.47266,-0.96472 -10.22675,-2.3826 -12.78685,-3.15082 -2.5601,-0.76823 -8.04116,-1.9222 -12.18013,-2.56438 -4.13899,-0.64219 -8.66747,-1.60182 -10.06332,-2.13252 -1.39584,-0.5307 -6.207,-1.17781 -10.691445,-1.43801 -4.484443,-0.2602 -9.754546,-0.65102 -11.711336,-0.86846 -11.875952,-1.31973 -42.128406,-0.48585 -46.799139,1.28996 -1.395849,0.5307 -5.92433,1.49033 -10.063313,2.13251 -4.138973,0.64219 -9.620033,1.79616 -12.180134,2.56438 -2.560102,0.76823 -8.3141865,2.1861 -12.7868509,3.15083 -5.24336669,1.13095 -12.033267,3.73204 -19.1142071,7.32229 -6.040153,3.06253 -11.249739,5.3006 -11.576863,4.97347 -0.327125,-0.32713 -1.938687,0.53604 -3.581243,1.91817 -1.642556,1.38211 -3.602416,2.51294 -4.355247,2.51294 -0.752833,0 -2.714612,1.13243 -4.359504,2.51651 -2.894154,2.43528 -10.441675,6.87935 -17.241434,10.15196 -1.81702,0.87452 -3.303673,2.18164 -3.303673,2.90474 0,1.77048 -10.579391,11.87269 -12.43352,11.87269 -1.420353,0 -3.830716,3.97729 -3.830716,6.32101 0,0.62851 -0.635083,1.86493 -1.411295,2.74757 -0.776209,0.88265 -2.661833,5.03556 -4.190267,9.22868 -4.357982,11.95575 -3.393609,25.69809 2.664531,37.96948 1.615365,3.27212 2.937031,6.39354 2.937031,6.93653 0,0.54298 2.515874,3.95281 5.59083,7.57738 3.074957,3.62458 5.590832,6.91365 5.590832,7.30904 0,1.17313 8.220513,4.37864 10.553551,4.11525 4.199162,-0.47405 14.440975,1.39241 20.825303,3.79521 3.560832,1.340141 7.299551,2.436623 8.308251,2.436623 1.008706,0 3.127053,1.059961 4.707416,2.355464 1.580376,1.295519 4.474425,2.968836 6.431216,3.718505 4.1088035,1.574146 11.7707001,7.052136 18.7393669,13.398004 2.6672549,2.428869 6.1984431,5.621618 7.8471001,7.094993 3.722882,3.327099 13.991845,16.850402 17.123861,22.550585 4.263545,7.759535 6.098894,11.758628 6.098894,13.289011 0,0.832639 0.35152,1.73114 0.781151,1.996658 0.429639,0.265533 1.896247,4.180706 3.25914,8.700381 1.362883,4.519663 2.781326,8.217581 3.152091,8.217581 0.370773,0 0.726004,2.302488 0.789403,5.116646 0.06343,2.8141613 0.674306,6.1305407 1.357565,7.369732 1.777694,3.22413072 1.741332,32.986767 -0.0499,40.880647 -1.55112,6.835553 -7.21264,19.005521 -10.63995,22.87158 -2.542029,2.867461 -9.304444,8.132118 -10.445635,8.132118 -0.412594,0 -1.47233,0.611847 -2.354979,1.359653 -1.870387,1.584651 -12.8320752,4.12886 -14.1854343,3.292428 -0.5067517,-0.313214 -3.0954312,0.392247 -5.752609,1.567624 -4.1112937,1.81864 -6.2863498,2.074007 -14.5958077,1.713621 -6.519694,-0.282718 -10.845807,-0.995771 -13.018222,-2.145607 -1.862011,-0.985544 -6.753286,-1.96718 -11.435795,-2.295037 l -8.182193,-0.572902 v 13.853508 c 0,11.242589 0.36294,14.751153 1.925758,18.616294 1.059167,2.61952 2.942521,7.92707 4.185236,11.79459 2.4502,7.62538 6.127376,15.11357 9.017878,18.36403 1.002648,1.12751 2.798677,3.6837 3.99117,5.68038 1.192495,1.99673 5.269012,6.43175 9.058934,9.85559 14.422667,13.02959 31.954437,22.91367 42.756217,24.10516 1.276244,0.14073 2.561637,0.49713 2.856426,0.79192 1.190949,1.19095 13.532852,0.6143 19.727736,-0.92175 z"
       id="path1941" />
    <path
       style="fill:#000000;stroke-width:1.01651"
       d="m 10.134624,144.89423 c -12.4943072,-3.74891 -16.66576,-5.76707 -18.8681915,-9.1284 -1.8997235,-2.89932 -0.7032661,-6.11294 2.6751007,-7.1852 3.076054,-0.9763 13.9206899,0.50047 18.6909908,2.54526 5.591177,2.39669 20.139527,4.43836 26.981026,3.78648 18.507653,-1.76349 26.679313,-5.40195 30.921912,-13.76812 3.17367,-6.25827 5.80265,-8.5303 9.394658,-8.11909 2.432704,0.27859 2.935491,0.85155 3.205255,3.653 0.450072,4.674 -3.751661,12.98471 -9.535753,18.86102 -9.141638,9.28742 -21.410545,13.09706 -41.089569,12.75879 -9.816219,-0.16868 -13.42207,-0.71728 -22.375429,-3.40374 z"
       id="path1943" />
  </g>
</svg>
